<?xml version="1.0" encoding="utf-8"?>
<!-- Generator: Adobe Illustrator 16.0.0, SVG Export Plug-In . SVG Version: 6.00 Build 0)  -->
<!DOCTYPE svg PUBLIC "-//W3C//DTD SVG 1.1//EN" "http://www.w3.org/Graphics/SVG/1.1/DTD/svg11.dtd">
<svg version="1.1" id="Layer_1" xmlns="http://www.w3.org/2000/svg" xmlns:xlink="http://www.w3.org/1999/xlink" x="0px" y="0px"
	 width="864px" height="864px" viewBox="0 0 864 864" enable-background="new 0 0 864 864" xml:space="preserve">
<path fill-rule="evenodd" clip-rule="evenodd" fill="#500E30" d="M822,499c-2-6-6.095-9.154-13.316-12.744
	c-3.856-1.916-7.971-6.053-9.209-10.035c-6.297-20.283-18.342-34.01-39.748-38.361c-6.597-1.342-13.129-3.223-19.789-3.992
	c-41.822-4.83-83.689-9.272-125.5-14.195c-4.186-0.493-8.379-1.616-12.297-1.449L575,362.083
	c-7.428-5.755-14.902-13.62-22.699-13.954c-38.719-1.657-77.535-1.985-116.287-1.224c-9.322,0.183-17.774,7.011-18.558,18.636
	c-3.065,45.466-6.256,90.924-9.123,136.403c-0.621,9.847-0.089,19.769-0.089,29.657c-1.202-0.046-2.402-0.09-3.604-0.137
	c0-20.35,0-40.701,0-61.498c-112.293-2.768-223.527-5.509-336.287-8.289c2.045,8.179,4.624,14.197,4.873,20.311
	c0.679,16.699,0.075,33.445,0.591,50.154c0.247,7.977-0.727,14.158-8.571,18.719c-5.428,3.154-10.152,8.67-4.944,15.867
	c3.78,5.229,20.146,8.158,24.266,2.85C92,560,101.592,562.938,110,564c1.437,12.328-1.275,18.99,10.977,21.604
	c13.553,2.889,27.098,5.949,40.793,7.924c3.35,0.484,7.433-2.688,10.873-4.701c3.042-1.779,5.659-4.283,8.463-6.465
	c3.895,0.639,4.011,7.113,4.134,10.736c1.324,39.159,38.262,64.697,75.381,52.153c19.737-6.669,31.085-20.95,37.286-40.711
	c98.748,0,196.665,0,294.582,0c25.314,0,50.629,0,77.536,0c8.688,29.009,32.055,47.849,60.092,43.388
	c12.659-2.015,26.446-7.936,35.951-16.344c16.685-14.756,20.043-35.666,14.619-59.002c9.719,6.933,17.578,12.539,25.438,18.146
	c1.384-0.714,2.767-1.429,4.15-2.142c1.322-20.348,2.646-40.688,3.95-60.755c1.924-0.37,5.813-4.868,6.776-5.831c2-2,3-7,3-11
	C824,505.567,823.479,501.335,822,499z M116.898,544.643c-2.718-36.541,24.392-58.848,64.907-55.488
	C151.965,496.5,128.457,511.392,116.898,544.643z M532.174,405.062c0-8.667,0-17.334,0-25.979
	c14.207-0.174,38.072,33.383,37.026,51.599c-11.661,0-23.388,0-37.026,0C532.174,422.138,532.174,413.599,532.174,405.062z
	 M467.895,384.688c0.266-2.883,5.289-7.479,8.277-7.605c17.365-0.727,34.775-0.356,53.209-0.356c0.343,4.1,0.699,6.446,0.707,8.792
	c0.053,14.678,0.025,29.357,0.025,45.845c-19.312,0-38.196,0.285-57.044-0.383c-2.216-0.078-5.962-5.34-6.062-8.3
	C466.574,410.025,466.731,397.285,467.895,384.688z M456.443,453.983c5.58,0,10.338,0,15.096,0c0.229,0.896,0.457,1.792,0.686,2.688
	c-5.092,3.302-10.182,6.603-16.711,10.835C455.898,461.922,456.154,458.19,456.443,453.983z M288.372,614.416
	c-2.929,3.783-5.442,8.801-8.372,12.584c-10.585,12.236-30.375,20.416-48.539,16.623c-28.738-6-46.944-34.521-40.973-64.182
	c5.197-25.809,33.844-45.262,60.235-40.271c5.474,1.036,10.459,4.665,15.668,7.099C276,552,280,555,285.924,564.662
	C296.373,577.268,297.37,597.531,288.372,614.416z M322.476,574.541c-5.763-48.438-29.893-78.965-81.022-83.746
	C299.93,491.035,327.401,519.524,322.476,574.541z M341.955,597.717c-0.001-0.916-0.002-1.833-0.004-2.75
	c84.744,0,169.488,0,254.233,0c0,0.917,0.002,1.834,0.003,2.75C511.441,597.717,426.699,597.717,341.955,597.717z M590.882,425.526
	c-8.575-15.837-16.079-30.285-24.157-44.408c-4.887-8.547-4.354-14.341,4.928-17.937l30.37,55.046
	C597.887,418.433,594.061,420.103,590.882,425.526z M645.041,508.261c-23.605,10.352-26.625,36.637-36.637,58.456
	c-5.874-56.799,27.199-86.629,103.859-79.882C689.871,493.779,666.504,498.85,645.041,508.261z M752,636
	c-27.297,15.701-50.01,10.094-69.021-14.025c-15.254-19.35-12.257-50.038,6.759-69.231c14.445-14.579,41.179-18.371,59.126-8.382
	C792.172,567.883,781.508,622.268,752,636z M631.779,433.646c0.176-1.162,0.352-2.325,0.529-3.488
	c37.543,3.577,75.191,6.349,112.587,11.087c17.585,2.227,32.788,11.231,45.438,29.449
	C738.309,445.794,683.992,444.267,631.779,433.646z M818,519.363c-0.713,1.426-2.063,2.21-3.504,2.637
	c0.689-10.618,0.073-19.253,0.504-25.877c4,2.877,3.089,3.63,4.59,6.48c0.253,1.271,0.41,2.82,0.41,4.76
	C820,515.363,820,515.363,818,519.363z"/>
<path fill-rule="evenodd" clip-rule="evenodd" d="M279.585,625.764c-8.653,13.746-29.959,21.652-48.124,17.859
	c-28.738-6-46.944-34.521-40.973-64.182c5.197-25.809,33.844-45.262,60.235-40.271c5.474,1.036,10.459,4.665,15.668,7.099
	c1.334,2.256,2.26,4.928,4.068,6.698c11.037,10.807,17.953,23.588,15.644,39.194c-1.743,11.777-2.251,13.783-5.104,24.838
	C280.858,617.047,278.48,626.124,279.585,625.764z M276.719,591.906c0.003-21.41-15.327-37.222-36.206-37.343
	c-21.299-0.124-36.624,15.7-36.834,38.041c-0.2,21.233,15.45,38.09,35.542,38.28C260.576,631.086,276.714,614.311,276.719,591.906z"
	/>
<path fill-rule="evenodd" clip-rule="evenodd" d="M752.074,633.754C731,653,697,645,682.979,621.195
	c-15.254-19.35-12.257-50.038,6.759-69.231c14.445-14.579,41.179-18.371,59.126-8.382c-1.846,0-3.531,2.658-2.299,3.502
	c29.15,19.953,33.121,53.545,9.539,79.944C754.393,628.941,753.4,631.498,752.074,633.754z M687.549,591.213
	c0.008,22.127,15.908,39.183,36.344,38.98c20.594-0.205,37.268-17.373,37.387-38.497c0.117-21.19-16.768-38.298-37.48-37.972
	C702.862,554.053,687.545,569.895,687.549,591.213z"/>
<g>
	<path fill-rule="evenodd" clip-rule="evenodd" fill="#6D6E71" d="M277,592.344c-0.005,22.404-16.144,39.18-37.498,38.979
		c-20.092-0.19-35.742-17.047-35.542-38.28c0.21-22.341,15.535-38.165,36.834-38.041C261.673,555.122,277.003,570.934,277,592.344z
		 M254.281,608c3.394-4.104,5.246-13.293,4.562-19.322c-1.144-10.08-8.562-15.496-19.543-14.718
		c-10.246,0.728-14.254,4.317-19.019,13.04c-1.626,2.978,1,12,2,16C228.281,614,246.066,617.936,254.281,608z"/>
	<path fill-rule="evenodd" clip-rule="evenodd" fill="#58595B" d="M686,591.992c-0.004-21.318,15.063-38.664,36-38.992
		c20.713-0.326,41.117,18.285,41,39.476c-0.119,21.124-18.514,38.292-39.107,38.497C703.457,631.175,686.008,614.119,686,591.992z
		 M706.576,586.85c0.52,8.566,0.136,17.539,9.699,22.008C723,612,731,613,737.631,606.135c9.369-10.135,6.743-25.176-3.547-30.797
		C723.758,569.696,711,573,706.576,586.85z"/>
</g>
</svg>
